# File produced by Open Asset Import Library (http://www.assimp.sf.net)
# (assimp v3.1.128981410)

adobe_mdllib Shield(Substance).mdl

# vertex positions
v -0.353231 0.381582 0.160183
v 0.353231 0.381582 0.160183
v 0.568179 0.443534 0.160183
v -0.568179 0.443534 0.160183
v 0.663325 0.490340 0.160183
v -0.663325 0.490340 0.160183
v 0.727840 0.588450 0.160183
v -0.727840 0.588450 0.160183
v 0.783068 0.753860 0.160183
v -0.783068 0.753860 0.160183
v 0.849775 1.444177 0.160183
v -0.849775 1.444177 0.160183
v -0.141330 2.087686 0.550734
v 0.141330 2.087686 0.550734
v 0.141330 2.597721 0.550734
v -0.141330 2.597721 0.550734
v 0.141330 1.904531 0.160183
v -0.141330 1.904531 0.160183
v 0.849775 3.241230 0.160183
v 0.141330 2.780876 0.160183
v -0.849775 3.241230 0.160183
v -0.141330 2.780876 0.160183
v 0.141330 1.904531 0.367570
v -0.141330 1.904531 0.367570
v -0.141330 2.780876 0.367570
v 0.141330 2.780876 0.367570
v 0.141330 2.617974 0.367561
v 0.141330 2.617974 0.160183
v 0.141330 2.067433 0.160183
v 0.141330 2.067433 0.367561
v -0.141330 2.067433 0.367561
v -0.141330 2.067433 0.160183
v -0.141330 2.617974 0.160183
v -0.141330 2.617974 0.367561
v 0.140896 2.067433 0.367561
v 0.140896 2.067433 0.160183
v 0.140896 2.617974 0.160183
v -0.141330 2.063506 0.160183
v 0.140896 2.063506 0.160183
v -0.141330 2.012868 0.509436
v 0.141330 2.012868 0.509436
v -0.141330 1.945829 0.442397
v 0.141330 1.945829 0.442397
v 0.141330 2.672539 0.509436
v -0.141330 2.672539 0.509436
v 0.141330 2.739578 0.442397
v -0.141330 2.739578 0.442397
v -1.102346 3.622812 -0.230450
v -1.102346 3.622812 0.230450
v 1.102346 3.622812 0.230450
v 1.102346 3.622812 -0.230450
v -0.428355 0.000000 0.230450
v -0.428355 0.000000 -0.230450
v 0.428355 0.000000 -0.230450
v 0.428355 0.000000 0.230450
v 0.569374 0.017895 0.230450
v 0.569374 0.017895 -0.230450
v 0.735211 0.060674 -0.230450
v 0.735211 0.060674 0.230450
v -0.569374 0.017895 -0.230450
v -0.569374 0.017895 0.230450
v -0.735211 0.060674 0.230450
v -0.735211 0.060674 -0.230450
v 0.869524 0.107220 0.230450
v 0.869524 0.107220 -0.230450
v 0.871606 0.108137 -0.230450
v 0.871606 0.108137 0.230450
v -0.869524 0.107220 -0.230450
v -0.869524 0.107220 0.230450
v -0.871606 0.108137 0.230450
v -0.871606 0.108137 -0.230450
v 0.982500 0.197070 0.230450
v 0.982500 0.197070 -0.230450
v 0.987773 0.204246 -0.230450
v 0.987773 0.204246 0.230450
v -0.982500 0.197070 -0.230450
v -0.982500 0.197070 0.230450
v -0.987773 0.204246 0.230450
v -0.987773 0.204246 -0.230450
v 1.055344 0.329309 0.230450
v 1.055344 0.329309 -0.230450
v 1.083399 0.404515 -0.230450
v 1.083399 0.404515 0.230450
v -1.055344 0.329309 -0.230450
v -1.055344 0.329309 0.230450
v -1.083399 0.404515 0.230450
v -1.083399 0.404515 -0.230450
v 1.116126 0.542847 0.230450
v 1.116126 0.542847 -0.230450
v 1.202861 1.346173 -0.230450
v 1.202861 1.346173 0.230450
v -1.116126 0.542847 -0.230450
v -1.116126 0.542847 0.230450
v -1.202861 1.346173 0.230450
v -1.202861 1.346173 -0.230450
v 1.202861 3.522297 -0.230450
v 1.202861 3.522297 0.230450
v -1.202861 3.522297 0.230450
v -1.202861 3.522297 -0.230450
v -1.108436 0.542704 0.230450
v -1.108436 0.753860 0.230450
v -1.202861 1.444177 0.230450
v 1.202861 3.241230 0.230450
v 1.202861 1.444177 0.230450
v -1.202861 3.241230 0.230450
v 1.108436 0.542704 -0.230450
v 1.108436 0.753860 -0.230450
v 1.202861 1.444177 -0.230450
v 1.202861 3.241230 -0.230450
v -1.202861 3.241230 -0.230450
v -1.202861 1.444177 -0.230450
v -0.500000 0.381582 0.230450
v 0.500000 0.381582 0.230450
v 0.804260 0.443534 0.230450
v -0.804260 0.443534 0.230450
v 0.938939 0.490340 0.230450
v -0.938939 0.490340 0.230450
v 1.030262 0.588450 0.230450
v -1.030262 0.588450 0.230450
v 1.108436 0.753860 0.230450
v 0.500000 0.381582 -0.230450
v -0.500000 0.381582 -0.230450
v -0.353231 0.381582 -0.160183
v 0.353231 0.381582 -0.160183
v -0.804260 0.443534 -0.230450
v -0.568179 0.443534 -0.160183
v 0.804260 0.443534 -0.230450
v 0.568179 0.443534 -0.160183
v -0.938939 0.490340 -0.230450
v -0.663325 0.490340 -0.160183
v 0.938939 0.490340 -0.230450
v 0.663325 0.490340 -0.160183
v -1.030262 0.588450 -0.230450
v -0.727840 0.588450 -0.160183
v 1.030262 0.588450 -0.230450
v 0.727840 0.588450 -0.160183
v -1.108436 0.753860 -0.230450
v -0.783068 0.753860 -0.160183
v 0.783068 0.753860 -0.160183
v -0.849775 1.444177 -0.160183
v 0.849775 1.444177 -0.160183
v -0.849775 3.241230 -0.160183
v 0.849775 3.241230 -0.160183
v -0.500000 0.071075 0.230450
v 0.500000 0.071075 0.230450
v -0.500000 0.071075 -0.230450
v -0.804260 0.149560 -0.230450
v 0.804260 0.149560 0.230450
v 0.500000 0.071075 -0.230450
v 0.938939 0.208857 0.230450
v 0.804260 0.149560 -0.230450
v -0.804260 0.149560 0.230450
v -0.938939 0.208857 -0.230450
v 1.030262 0.333150 0.230450
v 0.938939 0.208857 -0.230450
v -0.938939 0.208857 0.230450
v -1.030262 0.333150 -0.230450
v 1.108436 0.542704 0.230450
v 1.030262 0.333150 -0.230450
v -1.030262 0.333150 0.230450
v -1.108436 0.542704 -0.230450
v 0.140896 2.617974 0.367561

# UV coordinates
vt 0.636389 0.259890
vt 0.727599 0.259890
vt 0.755351 0.267889
vt 0.608637 0.267889
vt 0.767635 0.273932
vt 0.596353 0.273932
vt 0.775964 0.286599
vt 0.588023 0.286599
vt 0.783095 0.307955
vt 0.580893 0.307955
vt 0.791707 0.397081
vt 0.572280 0.397081
vt 0.622505 0.807970
vt 0.658998 0.807970
vt 0.658998 0.873820
vt 0.622505 0.873820
vt 0.700241 0.456516
vt 0.663747 0.456516
vt 0.791707 0.629096
vt 0.700241 0.569660
vt 0.572280 0.629096
vt 0.663747 0.569660
vt 0.464079 0.773180
vt 0.464079 0.736686
vt 0.522173 0.736686
vt 0.522173 0.773179
vt 0.459878 0.966935
vt 0.459878 0.930441
vt 0.517972 0.930441
vt 0.517972 0.966935
vt 0.800222 0.896353
vt 0.742128 0.896353
vt 0.742131 0.875321
vt 0.800222 0.875321
vt 0.742128 0.783209
vt 0.800222 0.783209
vt 0.800222 0.804241
vt 0.742131 0.804241
vt 0.460634 0.793178
vt 0.518728 0.793178
vt 0.518725 0.814210
vt 0.460634 0.814210
vt 0.518728 0.906322
vt 0.460634 0.906322
vt 0.460634 0.885290
vt 0.518725 0.885290
vt 0.905531 0.799914
vt 0.847440 0.799914
vt 0.847440 0.763477
vt 0.905531 0.763476
vt 0.963695 0.873705
vt 0.927257 0.873705
vt 0.927257 0.802119
vt 0.963695 0.802119
vt 0.573482 0.773180
vt 0.561913 0.773180
vt 0.561913 0.736686
vt 0.573481 0.736686
vt 0.543134 0.773179
vt 0.543134 0.736686
vt 0.569280 0.966935
vt 0.557712 0.966935
vt 0.557712 0.930441
vt 0.569280 0.930441
vt 0.538933 0.966935
vt 0.538933 0.930441
vt 0.690820 0.806856
vt 0.702389 0.797196
vt 0.721168 0.788541
vt 0.721168 0.891021
vt 0.702389 0.882366
vt 0.690820 0.872706
vt 0.539689 0.798510
vt 0.558468 0.807165
vt 0.570037 0.816825
vt 0.570037 0.882675
vt 0.558468 0.892334
vt 0.539689 0.900990
vt 0.350069 0.743470
vt 0.350069 0.806320
vt 0.065424 0.806321
vt 0.065424 0.743470
vt 0.150133 0.133194
vt 0.150133 0.070343
vt 0.260742 0.070343
vt 0.260742 0.133194
vt 0.278949 0.133194
vt 0.278949 0.070343
vt 0.300359 0.070343
vt 0.300359 0.133194
vt 0.131926 0.070343
vt 0.131926 0.133194
vt 0.110515 0.133194
vt 0.110515 0.070343
vt 0.317701 0.133194
vt 0.317701 0.070343
vt 0.317969 0.070343
vt 0.317969 0.133194
vt 0.093174 0.070343
vt 0.093174 0.133194
vt 0.092905 0.133194
vt 0.092905 0.070343
vt 0.332287 0.133194
vt 0.332287 0.070343
vt 0.332967 0.070343
vt 0.332967 0.133194
vt 0.078588 0.070343
vt 0.078588 0.133194
vt 0.077907 0.133194
vt 0.077907 0.070343
vt 0.860474 0.234436
vt 0.941751 0.234436
vt 0.941751 0.244623
vt 0.860474 0.244623
vt 0.403649 0.233271
vt 0.484926 0.233271
vt 0.484926 0.243459
vt 0.403649 0.243459
vt 0.860474 0.263362
vt 0.941751 0.263362
vt 0.941751 0.372184
vt 0.860474 0.372184
vt 0.403649 0.262197
vt 0.484926 0.262197
vt 0.484926 0.371019
vt 0.403649 0.371019
vt 0.941751 0.666971
vt 0.860474 0.666971
vt 0.484926 0.665807
vt 0.403649 0.665807
vt 0.526694 0.384427
vt 0.537892 0.280711
vt 0.538885 0.280693
vt 0.538885 0.307955
vt 0.526694 0.397081
vt 0.837294 0.629096
vt 0.837294 0.397081
vt 0.837294 0.384427
vt 0.837294 0.665384
vt 0.824316 0.678362
vt 0.539671 0.678362
vt 0.526694 0.665384
vt 0.526694 0.629096
vt 0.051433 0.384427
vt 0.062632 0.280711
vt 0.063625 0.280693
vt 0.063625 0.307955
vt 0.051433 0.397081
vt 0.051433 0.629096
vt 0.362033 0.629096
vt 0.362033 0.397081
vt 0.362033 0.384427
vt 0.362033 0.665384
vt 0.349056 0.678362
vt 0.064411 0.678362
vt 0.051433 0.665384
vt 0.747542 0.184046
vt 0.618434 0.184046
vt 0.637383 0.164362
vt 0.728593 0.164362
vt 0.579151 0.184046
vt 0.609631 0.164362
vt 0.786825 0.184046
vt 0.756345 0.164362
vt 0.561763 0.184046
vt 0.597347 0.164362
vt 0.804213 0.184046
vt 0.768629 0.164362
vt 0.803219 0.273932
vt 0.815010 0.286599
vt 0.548978 0.286599
vt 0.560769 0.273932
vt 0.825103 0.307955
vt 0.839319 0.716236
vt 0.528719 0.716236
vt 0.574305 0.696553
vt 0.793732 0.696553
vt 0.268768 0.179835
vt 0.139660 0.179835
vt 0.158609 0.160151
vt 0.249819 0.160151
vt 0.100377 0.179835
vt 0.130857 0.160151
vt 0.308051 0.179835
vt 0.277571 0.160151
vt 0.082989 0.179835
vt 0.118573 0.160151
vt 0.325439 0.179835
vt 0.289855 0.160151
vt 0.327959 0.273932
vt 0.339749 0.286599
vt 0.300704 0.286599
vt 0.292374 0.273932
vt 0.073718 0.286599
vt 0.085508 0.273932
vt 0.121092 0.273932
vt 0.112763 0.286599
vt 0.349842 0.307955
vt 0.307834 0.307955
vt 0.105633 0.307955
vt 0.316447 0.397081
vt 0.097020 0.397081
vt 0.316447 0.629096
vt 0.361496 0.719654
vt 0.050897 0.719654
vt 0.096483 0.699970
vt 0.315910 0.699970
vt 0.097020 0.629096
vt 0.617439 0.219801
vt 0.626689 0.210625
vt 0.737298 0.210625
vt 0.746548 0.219801
vt 0.746548 0.259890
vt 0.617439 0.259890
vt 0.271288 0.219801
vt 0.280245 0.212935
vt 0.301655 0.218458
vt 0.310570 0.229934
vt 0.310570 0.267889
vt 0.271288 0.259890
vt 0.755505 0.212935
vt 0.776916 0.218458
vt 0.785831 0.229934
vt 0.785831 0.267889
vt 0.142179 0.219801
vt 0.151429 0.210625
vt 0.262038 0.210625
vt 0.142179 0.259890
vt 0.794257 0.224468
vt 0.794526 0.224586
vt 0.803219 0.237590
vt 0.102896 0.229934
vt 0.111811 0.218458
vt 0.133222 0.212935
vt 0.102896 0.267889
vt 0.578157 0.229934
vt 0.587072 0.218458
vt 0.608483 0.212935
vt 0.578157 0.267889
vt 0.318997 0.224468
vt 0.319265 0.224586
vt 0.327959 0.237590
vt 0.808843 0.236068
vt 0.809524 0.236995
vt 0.815010 0.253637
vt 0.085508 0.237590
vt 0.094201 0.224586
vt 0.094470 0.224468
vt 0.560769 0.237590
vt 0.569462 0.224586
vt 0.569731 0.224468
vt 0.333583 0.236068
vt 0.334264 0.236995
vt 0.339749 0.253637
vt 0.818248 0.253142
vt 0.821870 0.262851
vt 0.825103 0.280693
vt 0.073718 0.253637
vt 0.079203 0.236995
vt 0.079884 0.236068
vt 0.548978 0.253637
vt 0.554464 0.236995
vt 0.555144 0.236068
vt 0.342987 0.253142
vt 0.346610 0.262851
vt 0.349842 0.280693
vt 0.826095 0.280711
vt 0.066857 0.262851
vt 0.070479 0.253142
vt 0.542118 0.262851
vt 0.545740 0.253142
vt 0.350835 0.280711
vt 0.860474 0.217494
vt 0.941751 0.217494
vt 0.484926 0.216329
vt 0.403649 0.216329
vt 0.052446 0.806321
vt 0.052446 0.743470
vt 0.363046 0.806320
vt 0.363046 0.743470
vt 0.161128 0.259890
vt 0.252339 0.259890
vt 0.280090 0.267889
vt 0.133377 0.267889
vt 0.849057 0.881632
vt 0.907148 0.881632
vt 0.907148 0.918070
vt 0.849057 0.918070

# vertex normals
vn 0.000000 0.000000 1.000000
vn 0.000000 -0.070437 0.997516
vn 0.000000 0.070437 0.997516
vn 0.000000 -1.000000 0.000000
vn 0.000000 1.000000 0.000000
vn 1.000000 0.000000 0.000000
vn -1.000000 0.000000 0.000000
vn 0.000000 -0.606949 0.794741
vn 0.000000 -0.794759 0.606925
vn 0.000000 -0.875507 0.483206
vn 0.000000 0.606949 0.794740
vn 0.000000 0.794759 0.606925
vn 0.000000 0.875508 0.483204
vn -0.017933 -0.999839 0.000000
vn 0.017933 -0.999839 0.000000
vn 0.193972 -0.981007 0.000000
vn 0.285237 -0.958457 0.000000
vn -0.193972 -0.981007 0.000000
vn -0.285237 -0.958457 0.000000
vn 0.328651 -0.944452 0.000000
vn 0.622450 -0.782659 0.000000
vn -0.328651 -0.944452 0.000000
vn -0.622450 -0.782659 0.000000
vn 0.637457 -0.770486 0.000000
vn 0.875903 -0.482487 0.000000
vn -0.637457 -0.770486 0.000000
vn -0.875903 -0.482487 0.000000
vn 0.902404 -0.430890 0.000000
vn 0.961795 -0.273770 0.000000
vn -0.902404 -0.430890 0.000000
vn -0.961795 -0.273770 0.000000
vn 0.992049 -0.125855 0.000000
vn 0.994222 -0.107347 0.000000
vn -0.992049 -0.125855 0.000000
vn -0.994222 -0.107347 0.000000
vn 0.000000 0.000000 -1.000000
vn -0.196188 0.822105 0.534466
vn 0.196188 0.822105 0.534466
vn -0.222031 0.545107 0.808431
vn 0.222031 0.545107 0.808431
vn -0.232190 0.184405 0.955030
vn 0.232190 0.184405 0.955030
vn -0.217606 0.087749 0.972084
vn 0.217606 0.087749 0.972084
vn -0.202776 0.023666 0.978939
vn 0.202776 0.023666 0.978939
vn -0.195181 0.000000 0.980767
vn 0.195181 0.000000 0.980767
vn 0.196188 0.822105 -0.534466
vn -0.196188 0.822105 -0.534466
vn 0.222031 0.545107 -0.808431
vn -0.222030 0.545107 -0.808431
vn 0.232190 0.184405 -0.955030
vn -0.232190 0.184405 -0.955030
vn 0.217606 0.087749 -0.972084
vn -0.217606 0.087749 -0.972084
vn 0.202776 0.023666 -0.978939
vn -0.202776 0.023666 -0.978939
vn 0.195181 0.000000 -0.980767
vn 0.000000 -1.000000 -0.000005
vn -0.195181 0.000000 -0.980767
vn 0.707107 0.707107 0.000000
vn -0.707107 0.707107 0.000000
vn 0.000000 1.000000 0.000000

# Mesh
g pPlane1_pPlane1
usemtl MATERIAL_PHONG2SG
f 4/4/1 1/1/1 2/2/1
f 2/2/1 3/3/1 4/4/1
f 6/6/1 4/4/1 3/3/1
f 3/3/1 5/5/1 6/6/1
f 8/8/1 6/6/1 5/5/1
f 5/5/1 7/7/1 8/8/1
f 10/10/1 8/8/1 7/7/1
f 7/7/1 9/9/1 10/10/1
f 12/12/1 10/10/1 9/9/1
f 9/9/1 11/11/1 12/12/1
f 16/16/3 13/13/2 14/14/2
f 14/14/2 15/15/3 16/16/3
f 18/18/1 12/12/1 11/11/1
f 11/11/1 17/17/1 18/18/1
f 17/17/1 11/11/1 19/19/1
f 19/19/1 20/20/1 17/17/1
f 20/20/1 19/19/1 21/21/1
f 21/21/1 22/22/1 20/20/1
f 22/22/1 21/21/1 12/12/1
f 12/12/1 18/18/1 22/22/1
f 24/26/4 18/23/4 17/24/4
f 17/24/4 23/25/4 24/26/4
f 26/30/5 20/27/5 22/28/5
f 22/28/5 25/29/5 26/30/5
f 28/34/6 20/31/6 26/32/6
f 26/32/6 27/33/6 28/34/6
f 30/38/6 23/35/6 17/36/6
f 17/36/6 29/37/6 30/38/6
f 32/42/7 18/39/7 24/40/7
f 24/40/7 31/41/7 32/42/7
f 34/46/7 25/43/7 22/44/7
f 22/44/7 33/45/7 34/46/7
f 36/50/5 32/47/5 31/48/5
f 31/48/5 35/49/5 36/50/5
f 39/54/1 37/51/1 33/52/1
f 33/52/1 38/53/1 39/54/1
f 14/58/2 13/55/2 40/56/8
f 40/56/8 41/57/8 14/58/2
f 41/57/8 40/56/8 42/59/9
f 42/59/9 43/60/9 41/57/8
f 43/60/9 42/59/9 24/26/10
f 24/26/10 23/25/10 43/60/9
f 16/64/3 15/61/3 44/62/11
f 44/62/11 45/63/11 16/64/3
f 45/63/11 44/62/11 46/65/12
f 46/65/12 47/66/12 45/63/11
f 47/66/12 46/65/12 26/30/13
f 26/30/13 25/29/13 47/66/12
f 15/72/6 14/67/6 41/68/6
f 15/72/6 41/68/6 43/69/6
f 15/72/6 43/69/6 23/35/6
f 15/72/6 23/35/6 26/32/6
f 15/72/6 26/32/6 46/70/6
f 46/70/6 44/71/6 15/72/6
f 47/78/7 25/43/7 24/40/7
f 47/78/7 24/40/7 42/73/7
f 47/78/7 42/73/7 40/74/7
f 47/78/7 40/74/7 13/75/7
f 47/78/7 13/75/7 16/76/7
f 16/76/7 45/77/7 47/78/7

# Mesh
g pPlane1_pPlane1
usemtl MATERIAL_STINGRAYPBS1SG
f 51/82/5 48/79/5 49/80/5
f 49/80/5 50/81/5 51/82/5
f 55/86/15 52/83/14 53/84/14
f 53/84/14 54/85/15 55/86/15
f 59/90/17 56/87/16 57/88/16
f 57/88/16 58/89/17 59/90/17
f 63/94/19 60/91/18 61/92/18
f 61/92/18 62/93/19 63/94/19
f 67/98/21 64/95/20 65/96/20
f 65/96/20 66/97/21 67/98/21
f 71/102/23 68/99/22 69/100/22
f 69/100/22 70/101/23 71/102/23
f 75/106/25 72/103/24 73/104/24
f 73/104/24 74/105/25 75/106/25
f 79/110/27 76/107/26 77/108/26
f 77/108/26 78/109/27 79/110/27
f 83/114/29 80/111/28 81/112/28
f 81/112/28 82/113/29 83/114/29
f 87/118/31 84/115/30 85/116/30
f 85/116/30 86/117/31 87/118/31
f 91/122/33 88/119/32 89/120/32
f 89/120/32 90/121/33 91/122/33
f 95/126/35 92/123/34 93/124/34
f 93/124/34 94/125/35 95/126/35
f 97/128/6 91/122/6 90/121/6
f 90/121/6 96/127/6 97/128/6
f 99/130/7 95/126/7 94/125/7
f 94/125/7 98/129/7 99/130/7
f 102/135/1 94/131/1 93/132/1
f 102/135/1 93/132/1 100/133/1
f 100/133/1 101/134/1 102/135/1
f 103/136/1 104/137/1 91/138/1
f 103/136/1 91/138/1 97/139/1
f 103/136/1 97/139/1 50/140/1
f 103/136/1 50/140/1 49/141/1
f 103/136/1 49/141/1 98/142/1
f 94/131/1 102/135/1 105/143/1
f 105/143/1 103/136/1 98/142/1
f 98/142/1 94/131/1 105/143/1
f 108/148/36 90/144/36 89/145/36
f 108/148/36 89/145/36 106/146/36
f 106/146/36 107/147/36 108/148/36
f 110/150/36 111/151/36 95/152/36
f 110/150/36 95/152/36 99/153/36
f 110/150/36 99/153/36 48/154/36
f 110/150/36 48/154/36 51/155/36
f 110/150/36 51/155/36 96/156/36
f 90/144/36 108/148/36 109/149/36
f 109/149/36 110/150/36 96/156/36
f 109/149/36 96/156/36 90/144/36
f 1/160/5 112/157/5 113/158/5
f 113/158/5 2/159/5 1/160/5
f 2/159/37 113/158/37 114/161/37
f 114/161/37 3/162/37 2/159/37
f 4/164/38 115/163/38 112/157/38
f 112/157/38 1/160/38 4/164/38
f 3/162/39 114/161/39 116/165/39
f 116/165/39 5/166/39 3/162/39
f 6/168/40 117/167/40 115/163/40
f 115/163/40 4/164/40 6/168/40
f 5/5/41 116/169/41 118/170/41
f 118/170/41 7/7/41 5/5/41
f 8/8/42 119/171/42 117/172/42
f 117/172/42 6/6/42 8/8/42
f 7/7/43 118/170/43 120/173/43
f 120/173/43 9/9/43 7/7/43
f 10/10/44 101/134/44 119/171/44
f 119/171/44 8/8/44 10/10/44
f 9/9/45 120/173/45 104/137/45
f 104/137/45 11/11/45 9/9/45
f 12/12/46 102/135/46 101/134/46
f 101/134/46 10/10/46 12/12/46
f 11/11/47 104/137/47 103/136/47
f 103/136/47 19/19/47 11/11/47
f 19/177/4 103/174/4 105/175/4
f 105/175/4 21/176/4 19/177/4
f 21/21/48 105/143/48 102/135/48
f 102/135/48 12/12/48 21/21/48
f 124/181/5 121/178/5 122/179/5
f 122/179/5 123/180/5 124/181/5
f 123/180/49 122/179/49 125/182/49
f 125/182/49 126/183/49 123/180/49
f 128/185/50 127/184/50 121/178/50
f 121/178/50 124/181/50 128/185/50
f 126/183/51 125/182/51 129/186/51
f 129/186/51 130/187/51 126/183/51
f 132/189/52 131/188/52 127/184/52
f 127/184/52 128/185/52 132/189/52
f 130/193/53 129/190/53 133/191/53
f 133/191/53 134/192/53 130/193/53
f 136/197/54 135/194/54 131/195/54
f 131/195/54 132/196/54 136/197/54
f 134/192/55 133/191/55 137/198/55
f 137/198/55 138/199/55 134/192/55
f 139/200/56 107/147/56 135/194/56
f 135/194/56 136/197/56 139/200/56
f 138/199/57 137/198/57 111/151/57
f 111/151/57 140/201/57 138/199/57
f 141/202/58 108/148/58 107/147/58
f 107/147/58 139/200/58 141/202/58
f 140/201/59 111/151/59 110/150/59
f 110/150/59 142/203/59 140/201/59
f 142/207/60 110/204/60 109/205/60
f 109/205/60 143/206/60 142/207/60
f 143/208/61 109/149/61 108/148/61
f 108/148/61 141/202/61 143/208/61
f 112/214/1 144/209/1 52/210/1
f 112/214/1 52/210/1 55/211/1
f 112/214/1 55/211/1 145/212/1
f 145/212/1 113/213/1 112/214/1
f 122/220/36 146/215/36 60/216/36
f 122/220/36 60/216/36 63/217/36
f 122/220/36 63/217/36 147/218/36
f 147/218/36 125/219/36 122/220/36
f 113/213/1 145/212/1 56/221/1
f 113/213/1 56/221/1 59/222/1
f 113/213/1 59/222/1 148/223/1
f 148/223/1 114/224/1 113/213/1
f 121/228/36 149/225/36 54/226/36
f 121/228/36 54/226/36 53/227/36
f 121/228/36 53/227/36 146/215/36
f 146/215/36 122/220/36 121/228/36
f 114/224/1 148/223/1 64/229/1
f 114/224/1 64/229/1 67/230/1
f 114/224/1 67/230/1 150/231/1
f 150/231/1 116/169/1 114/224/1
f 127/235/36 151/232/36 58/233/36
f 127/235/36 58/233/36 57/234/36
f 127/235/36 57/234/36 149/225/36
f 149/225/36 121/228/36 127/235/36
f 115/239/1 152/236/1 62/237/1
f 115/239/1 62/237/1 61/238/1
f 115/239/1 61/238/1 144/209/1
f 144/209/1 112/214/1 115/239/1
f 125/219/36 147/218/36 68/240/36
f 125/219/36 68/240/36 71/241/36
f 125/219/36 71/241/36 153/242/36
f 153/242/36 129/190/36 125/219/36
f 116/169/1 150/231/1 72/243/1
f 116/169/1 72/243/1 75/244/1
f 116/169/1 75/244/1 154/245/1
f 154/245/1 118/170/1 116/169/1
f 131/195/36 155/246/36 66/247/36
f 131/195/36 66/247/36 65/248/36
f 131/195/36 65/248/36 151/232/36
f 151/232/36 127/235/36 131/195/36
f 117/172/1 156/249/1 70/250/1
f 117/172/1 70/250/1 69/251/1
f 117/172/1 69/251/1 152/236/1
f 152/236/1 115/239/1 117/172/1
f 129/190/36 153/242/36 76/252/36
f 129/190/36 76/252/36 79/253/36
f 129/190/36 79/253/36 157/254/36
f 157/254/36 133/191/36 129/190/36
f 118/170/1 154/245/1 80/255/1
f 118/170/1 80/255/1 83/256/1
f 118/170/1 83/256/1 158/257/1
f 158/257/1 120/173/1 118/170/1
f 135/194/36 159/258/36 74/259/36
f 135/194/36 74/259/36 73/260/36
f 135/194/36 73/260/36 155/246/36
f 155/246/36 131/195/36 135/194/36
f 119/171/1 160/261/1 78/262/1
f 119/171/1 78/262/1 77/263/1
f 119/171/1 77/263/1 156/249/1
f 156/249/1 117/172/1 119/171/1
f 133/191/36 157/254/36 84/264/36
f 133/191/36 84/264/36 87/265/36
f 133/191/36 87/265/36 161/266/36
f 161/266/36 137/198/36 133/191/36
f 120/173/1 158/257/1 88/267/1
f 120/173/1 88/267/1 91/138/1
f 91/138/1 104/137/1 120/173/1
f 107/147/36 106/146/36 82/268/36
f 107/147/36 82/268/36 81/269/36
f 107/147/36 81/269/36 159/258/36
f 159/258/36 135/194/36 107/147/36
f 101/134/1 100/133/1 86/270/1
f 101/134/1 86/270/1 85/271/1
f 101/134/1 85/271/1 160/261/1
f 160/261/1 119/171/1 101/134/1
f 137/198/36 161/266/36 92/272/36
f 137/198/36 92/272/36 95/152/36
f 95/152/36 111/151/36 137/198/36
f 53/84/14 52/83/14 61/92/18
f 61/92/18 60/91/18 53/84/14
f 57/88/16 56/87/16 55/86/15
f 55/86/15 54/85/15 57/88/16
f 65/96/20 64/95/20 59/90/17
f 59/90/17 58/89/17 65/96/20
f 63/94/19 62/93/19 69/100/22
f 69/100/22 68/99/22 63/94/19
f 73/104/24 72/103/24 67/98/21
f 67/98/21 66/97/21 73/104/24
f 71/102/23 70/101/23 77/108/26
f 77/108/26 76/107/26 71/102/23
f 81/112/28 80/111/28 75/273/25
f 75/273/25 74/274/25 81/112/28
f 79/276/27 78/275/27 85/116/30
f 85/116/30 84/115/30 79/276/27
f 89/120/32 88/119/32 83/114/29
f 83/114/29 82/113/29 89/120/32
f 87/118/31 86/117/31 93/124/34
f 93/124/34 92/123/34 87/118/31
f 51/82/62 50/81/62 97/277/62
f 97/277/62 96/278/62 51/82/62
f 99/280/63 98/279/63 49/80/63
f 49/80/63 48/79/63 99/280/63
f 144/209/1 61/238/1 52/210/1
f 146/215/36 53/227/36 60/216/36
f 145/212/1 55/211/1 56/221/1
f 149/225/36 57/234/36 54/226/36
f 148/223/1 59/222/1 64/229/1
f 151/232/36 65/248/36 58/233/36
f 152/236/1 69/251/1 62/237/1
f 147/218/36 63/217/36 68/240/36
f 150/231/1 67/230/1 72/243/1
f 155/246/36 73/260/36 66/247/36
f 156/249/1 77/263/1 70/250/1
f 153/242/36 71/241/36 76/252/36
f 154/245/1 75/244/1 80/255/1
f 159/258/36 81/269/36 74/259/36
f 160/261/1 85/271/1 78/262/1
f 157/254/36 79/253/36 84/264/36
f 158/257/1 83/256/1 88/267/1
f 106/146/36 89/145/36 82/268/36
f 100/133/1 93/132/1 86/270/1
f 161/266/36 87/265/36 92/272/36

# Mesh
g pPlane1_pPlane1
usemtl MATERIAL_STINGRAYPBS2SG
f 128/284/36 124/281/36 123/282/36
f 123/282/36 126/283/36 128/284/36
f 132/196/36 128/284/36 126/283/36
f 126/283/36 130/193/36 132/196/36
f 136/197/36 132/196/36 130/193/36
f 130/193/36 134/192/36 136/197/36
f 139/200/36 136/197/36 134/192/36
f 134/192/36 138/199/36 139/200/36
f 141/202/36 139/200/36 138/199/36
f 138/199/36 140/201/36 141/202/36
f 143/208/36 141/202/36 140/201/36
f 140/201/36 142/203/36 143/208/36
f 29/37/64 17/36/64 20/31/64
f 20/31/64 28/34/64 29/37/64
f 27/33/6 26/32/64 23/35/64
f 23/35/64 30/38/6 27/33/6
f 33/45/6 22/44/64 18/39/64
f 18/39/64 32/42/6 33/45/6
f 31/41/7 24/40/64 25/43/64
f 25/43/64 34/46/7 31/41/7
f 162/288/4 34/285/4 33/286/4
f 33/286/4 37/287/4 162/288/4
